<svg width="512" height="512" viewBox="0 0 24 24" fill="none" xmlns="http://www.w3.org/2000/svg">
  <path d="M12 2C11.073 2 10.243 2.675 10.046 3.556C8.492 3.913 7.218 5.151 6.833 6.722C5.898 6.943 5.117 7.686 4.843 8.601C3.961 8.805 3.25 9.524 3.014 10.406C2.188 10.575 1.5 11.226 1.5 12C1.5 12.774 2.188 13.425 3.014 13.594C3.25 14.476 3.961 15.195 4.843 15.399C5.117 16.314 5.898 17.057 6.833 17.278C7.218 18.849 8.492 20.087 10.046 20.444C10.243 21.325 11.073 22 12 22C12.927 22 13.757 21.325 13.954 20.444C15.508 20.087 16.782 18.849 17.167 17.278C18.102 17.057 18.883 16.314 19.157 15.399C20.039 15.195 20.75 14.476 20.986 13.594C21.812 13.425 22.5 12.774 22.5 12C22.5 11.226 21.812 10.575 20.986 10.406C20.75 9.524 20.039 8.805 19.157 8.601C18.883 7.686 18.102 6.943 17.167 6.722C16.782 5.151 15.508 3.913 13.954 3.556C13.757 2.675 12.927 2 12 2ZM12 4C12.5523 4 13 4.44772 13 5C13 5.55228 12.5523 6 12 6C11.4477 6 11 5.55228 11 5C11 4.44772 11.4477 4 12 4ZM9 7C9.55228 7 10 7.44772 10 8C10 8.55228 9.55228 9 9 9C8.44772 9 8 8.55228 8 8C8 7.44772 8.44772 7 9 7ZM15 7C15.5523 7 16 7.44772 16 8C16 8.55228 15.5523 9 15 9C14.4477 9 14 8.55228 14 8C14 7.44772 14.4477 7 15 7ZM6.5 11C7.05228 11 7.5 11.4477 7.5 12C7.5 12.5523 7.05228 13 6.5 13C5.94772 13 5.5 12.5523 5.5 12C5.5 11.4477 5.94772 11 6.5 11ZM17.5 11C18.0523 11 18.5 11.4477 18.5 12C18.5 12.5523 18.0523 13 17.5 13C16.9477 13 16.5 12.5523 16.5 12C16.5 11.4477 16.9477 11 17.5 11ZM9 15C9.55228 15 10 15.4477 10 16C10 16.5523 9.55228 17 9 17C8.44772 17 8 16.5523 8 16C8 15.4477 8.44772 15 9 15ZM15 15C15.5523 15 16 15.4477 16 16C16 16.5523 15.5523 17 15 17C14.4477 17 14 16.5523 14 16C14 15.4477 14.4477 15 15 15ZM12 18C12.5523 18 13 18.4477 13 19C13 19.5523 12.5523 20 12 20C11.4477 20 11 19.5523 11 19C11 18.4477 11.4477 18 12 18Z" fill="currentColor"/>
</svg>
